<svg xmlns="http://www.w3.org/2000/svg" viewBox="0 0 256.12 157.2"><defs><style>.cls-1,.cls-4{fill:#fff;}.cls-1{stroke:#000;stroke-miterlimit:10;}.cls-2{fill:#1d1d1b;}.cls-3{fill:#1eb6eb;}</style></defs><title>AIBROAD</title><g id="Calque_2" data-name="Calque 2"><g id="Calque_2-2" data-name="Calque 2"><rect class="cls-1" x="0.5" y="0.5" width="255.12" height="156.2"/></g><g id="Calque_1-2" data-name="Calque 1"><rect class="cls-2" x="217.98" y="61.58" width="17.62" height="25.97" rx="4.29"/><path class="cls-3" d="M36.26,91.48h-9L44.71,56.82H55.86L61.8,91.48h-9L49,65.56h-.27Zm1.08-13.64H56.16l-1.1,6.36H36.25Z"/><path class="cls-2" d="M79.66,56.82,73.91,91.48H65.54l5.75-34.66Z"/><path class="cls-2" d="M79.16,91.48l5.75-34.66H99.36a15.7,15.7,0,0,1,6.35,1.1A6.83,6.83,0,0,1,109.16,61a7.34,7.34,0,0,1,.56,4.59,8.56,8.56,0,0,1-1.43,3.5,9.53,9.53,0,0,1-2.72,2.57A10.58,10.58,0,0,1,102,73.1l-.06.34a7.35,7.35,0,0,1,3.71,1.12A6.16,6.16,0,0,1,108,77.44a7.73,7.73,0,0,1,.36,4.34,10.4,10.4,0,0,1-2.24,5,12.17,12.17,0,0,1-4.7,3.45,16.8,16.8,0,0,1-6.73,1.26Zm9.52-6.75h5.18a7.22,7.22,0,0,0,4.17-1,4.15,4.15,0,0,0,1.77-2.87,3.8,3.8,0,0,0-.24-2.31A3.16,3.16,0,0,0,98,77a6.09,6.09,0,0,0-2.7-.53H90ZM91,71.07h4.64a6.53,6.53,0,0,0,2.49-.46A4.75,4.75,0,0,0,100,69.29a4,4,0,0,0,.93-2.08,2.87,2.87,0,0,0-.79-2.75,4.49,4.49,0,0,0-3.15-1H92.19Z"/><path class="cls-2" d="M110.8,91.48l5.75-34.66h14.32a13.61,13.61,0,0,1,6.49,1.4,8,8,0,0,1,3.7,4,11,11,0,0,1,.52,6.15,12.44,12.44,0,0,1-7.68,9.94,18,18,0,0,1-7.08,1.32h-9l1.12-6.6h7.49a9.55,9.55,0,0,0,3.26-.5A4.81,4.81,0,0,0,131.82,71a5.38,5.38,0,0,0,1.08-2.64,4.56,4.56,0,0,0-.21-2.66A3.12,3.12,0,0,0,131,64.11a7.42,7.42,0,0,0-3-.53h-4.13l-4.65,27.9Zm22.13-15.84,6,15.84H129.8L124,75.64Z"/><path class="cls-2" d="M181,91.48h-9l17.45-34.66h11.15l5.94,34.66h-9l-3.8-25.92h-.27Zm1.08-13.64h18.82l-1.1,6.36H181Z"/><path class="cls-2" d="M223.24,91.48h-13L216,56.82h12.6A16.77,16.77,0,0,1,237.42,59a11.61,11.61,0,0,1,5,6.13,18.49,18.49,0,0,1,.55,9.48,21.89,21.89,0,0,1-3.52,9.11,17.4,17.4,0,0,1-6.78,5.79A21.22,21.22,0,0,1,223.24,91.48Zm-3.43-7.14h4a11.88,11.88,0,0,0,5.15-1.06,8.8,8.8,0,0,0,3.71-3.4,16.69,16.69,0,0,0,2.1-6.19,13,13,0,0,0,0-5.76,4.81,4.81,0,0,0-2.51-3,10.76,10.76,0,0,0-4.83-.93h-4.16Z"/><rect class="cls-3" x="32.67" y="70.89" width="195.47" height="6.49"/><polygon class="cls-3" points="222.19 74.61 222.19 63.03 233.14 74.61 222.19 85.24 222.19 74.61"/><polygon class="cls-4" points="43.09 77.38 39.35 85.22 52.05 85.78 50.83 77.38 43.09 77.38"/><polygon class="cls-4" points="187.71 77.38 183.97 85.22 196.67 85.78 195.45 77.38 187.71 77.38"/><polygon class="cls-4" points="125.91 80.48 125 77.38 121.65 77.38 120.7 82.91 125.91 80.7 125.91 80.48"/><polygon class="cls-4" points="135.85 77.38 134 78.49 133.57 77.38 135.85 77.38"/><path d="M161.6,58.48a14.51,14.51,0,0,0-16,12.81,14.26,14.26,0,0,0,2.12,9.27c2.28,3.62,9,12.35,9.34,12.72l.61.78.77-.63c.38-.29,8.89-7.33,11.89-10.36a14.47,14.47,0,0,0-8.72-24.59Zm10.89,15.8A12.4,12.4,0,0,1,169,81.7c-2.42,2.44-8.77,7.76-11,9.6-1.76-2.29-6.78-8.85-8.6-11.77a12.34,12.34,0,0,1-1.84-8,12.56,12.56,0,1,1,25,2.78Z"/><path d="M161.39,60.4a12.58,12.58,0,0,0-13.86,11.1,12.34,12.34,0,0,0,1.84,8c1.82,2.92,6.84,9.48,8.6,11.77,2.21-1.84,8.56-7.16,11-9.6a12.4,12.4,0,0,0,3.54-7.42A12.58,12.58,0,0,0,161.39,60.4Zm7.17,13.26A8.59,8.59,0,1,1,161,64.2,8.6,8.6,0,0,1,168.56,73.66Z"/><path d="M161,64.2a8.58,8.58,0,1,0,7.58,9.46A8.61,8.61,0,0,0,161,64.2Zm5.65,9.25a6.65,6.65,0,1,1-5.86-7.33A6.67,6.67,0,0,1,166.63,73.45Z"/><rect class="cls-3" x="163.43" y="70.89" width="11.48" height="6.49"/><rect class="cls-4" x="29.66" y="67.67" width="6.81" height="9.88" rx="2.28" transform="translate(36.63 -7.1) rotate(27.04)"/><path d="M68.75,99.65h.54v5.78a3,3,0,0,1-.42,1.59,2.94,2.94,0,0,1-1.14,1.1,3.34,3.34,0,0,1-1.66.4,3.38,3.38,0,0,1-1.67-.4,2.94,2.94,0,0,1-1.14-1.1,3,3,0,0,1-.42-1.59V99.65h.54v5.75a2.59,2.59,0,0,0,.34,1.34,2.43,2.43,0,0,0,1,.93,3,3,0,0,0,2.79,0,2.43,2.43,0,0,0,1-.93,2.59,2.59,0,0,0,.34-1.34Z"/><path d="M76.51,101.83a1.8,1.8,0,0,0-.66-1.31,2.26,2.26,0,0,0-1.53-.5,2.54,2.54,0,0,0-1.13.23,2,2,0,0,0-.78.64,1.57,1.57,0,0,0-.28.93,1.39,1.39,0,0,0,.13.61,1.67,1.67,0,0,0,.37.48,2.31,2.31,0,0,0,.57.36,4.32,4.32,0,0,0,.72.28l1,.28a6.9,6.9,0,0,1,.91.35,2.87,2.87,0,0,1,.72.46,2.14,2.14,0,0,1,.49.64,2,2,0,0,1,.17.83,2.22,2.22,0,0,1-.36,1.24,2.39,2.39,0,0,1-1,.86,3.5,3.5,0,0,1-1.54.31,3.38,3.38,0,0,1-1.47-.29,2.33,2.33,0,0,1-1-.79,2.26,2.26,0,0,1-.41-1.17h.54a1.73,1.73,0,0,0,.35.93,1.94,1.94,0,0,0,.81.61,3.32,3.32,0,0,0,2.4,0,2,2,0,0,0,.84-.67,1.71,1.71,0,0,0,.3-1,1.43,1.43,0,0,0-.21-.79,1.89,1.89,0,0,0-.64-.57,5.21,5.21,0,0,0-1-.42l-1-.31a3.76,3.76,0,0,1-1.57-.85,1.84,1.84,0,0,1-.53-1.34,2.13,2.13,0,0,1,.35-1.19,2.47,2.47,0,0,1,1-.82,3.12,3.12,0,0,1,1.39-.3,3,3,0,0,1,1.38.3,2.5,2.5,0,0,1,.94.82,2.44,2.44,0,0,1,.39,1.19Z"/><path d="M79.26,108.38V99.65h4.86v.5H79.79v3.62h4.07v.49H79.79v3.63h4.43v.49Z"/><path d="M89.36,108.38H88.8L92,99.65h.61l3.15,8.73h-.56l-2.88-8h0Zm.8-3.29h4.19v.5H90.16Z"/><path d="M97.86,99.65v8.73h-.53V99.65Z"/><path d="M103.76,108.38V99.65h4.87v.5h-4.34v3.62h3.94v.49h-3.94v4.12Z"/><path d="M117.73,104a5.61,5.61,0,0,1-.47,2.36,3.72,3.72,0,0,1-1.3,1.56,3.41,3.41,0,0,1-1.92.56,3.36,3.36,0,0,1-1.92-.56,3.77,3.77,0,0,1-1.31-1.57,5.57,5.57,0,0,1-.46-2.35,5.43,5.43,0,0,1,.47-2.36,3.74,3.74,0,0,1,1.3-1.57,3.36,3.36,0,0,1,1.92-.56,3.41,3.41,0,0,1,1.92.56,3.75,3.75,0,0,1,1.3,1.57A5.58,5.58,0,0,1,117.73,104Zm-.52,0a5.09,5.09,0,0,0-.41-2.11,3.28,3.28,0,0,0-1.12-1.38,3,3,0,0,0-3.28,0,3.19,3.19,0,0,0-1.12,1.37,5.67,5.67,0,0,0,0,4.21,3.25,3.25,0,0,0,1.12,1.39A2.91,2.91,0,0,0,114,108a2.81,2.81,0,0,0,1.64-.49,3.16,3.16,0,0,0,1.12-1.38A5,5,0,0,0,117.21,104Z"/><path d="M119.81,108.38V99.65h2.69a2.89,2.89,0,0,1,1.42.33,2.2,2.2,0,0,1,.92.89,2.77,2.77,0,0,1,.32,1.34,2.65,2.65,0,0,1-.32,1.31,2.2,2.2,0,0,1-.92.89,2.87,2.87,0,0,1-1.42.32h-2.41v-.5h2.4a2.41,2.41,0,0,0,1.15-.25,1.76,1.76,0,0,0,.73-.7,2.17,2.17,0,0,0,.26-1.07,2.22,2.22,0,0,0-.26-1.09,1.75,1.75,0,0,0-.73-.72,2.44,2.44,0,0,0-1.15-.25h-2.15v8.23Zm3.58-3.95,2.15,3.95h-.61l-2.14-3.95Z"/><path d="M130.08,100.15v-.5h6.12v.5h-2.79v8.23h-.53v-8.23Z"/><path d="M138.14,108.38V99.65h2.69a2.87,2.87,0,0,1,1.42.33,2.2,2.2,0,0,1,.92.89,2.77,2.77,0,0,1,.32,1.34,2.65,2.65,0,0,1-.32,1.31,2.23,2.23,0,0,1-.91.89,2.89,2.89,0,0,1-1.42.32h-2.41v-.5h2.39A2.41,2.41,0,0,0,142,104a1.79,1.79,0,0,0,.74-.7,2.17,2.17,0,0,0,.25-1.07,2.22,2.22,0,0,0-.25-1.09,1.77,1.77,0,0,0-.74-.72,2.41,2.41,0,0,0-1.15-.25h-2.15v8.23Zm3.59-3.95,2.14,3.95h-.61l-2.14-3.95Z"/><path d="M145.28,108.38h-.56l3.15-8.73h.61l3.15,8.73h-.56l-2.87-8h0Zm.8-3.29h4.19v.5h-4.19Z"/><path d="M152.1,99.65l2.87,8H155l2.86-8h.56l-3.15,8.73h-.61l-3.15-8.73Z"/><path d="M160.07,108.38V99.65h4.86v.5h-4.32v3.62h4.06v.49h-4.06v3.63H165v.49Z"/><path d="M167.14,108.38V99.65h.53v8.24h4.26v.49Z"/><path d="M173.89,108.38V99.65h.53v8.24h4.26v.49Z"/><path d="M181.17,99.65v8.73h-.53V99.65Z"/><path d="M190.36,99.65v8.73h-.52l-5.57-7.76h-.05v7.76h-.53V99.65h.52l5.57,7.77h.05V99.65Z"/><path d="M199,102.38a3.47,3.47,0,0,0-.33-.86,3.1,3.1,0,0,0-.6-.75,3,3,0,0,0-3.59-.24,3.17,3.17,0,0,0-1.11,1.37A5.11,5.11,0,0,0,193,104a5.24,5.24,0,0,0,.4,2.1,3.24,3.24,0,0,0,1.13,1.38,2.89,2.89,0,0,0,1.68.49,2.85,2.85,0,0,0,1.52-.4,2.69,2.69,0,0,0,1-1.13,3.73,3.73,0,0,0,.36-1.77l.19.09h-3v-.49h3.3v.49a4.12,4.12,0,0,1-.44,2,3.08,3.08,0,0,1-1.22,1.28,3.73,3.73,0,0,1-3.74-.11,3.65,3.65,0,0,1-1.3-1.56,5.62,5.62,0,0,1-.46-2.36,6.2,6.2,0,0,1,.26-1.84,4.1,4.1,0,0,1,.76-1.42,3.25,3.25,0,0,1,1.17-.91,3.49,3.49,0,0,1,1.49-.32,3.55,3.55,0,0,1,1.34.25,3.2,3.2,0,0,1,1,.66,3.52,3.52,0,0,1,1.06,1.94Z"/></g></g></svg>