<?xml version="1.0" encoding="utf-8"?>
<!-- Generator: Adobe Illustrator 24.0.1, SVG Export Plug-In . SVG Version: 6.00 Build 0)  -->
<svg version="1.1" id="Calque_1" xmlns="http://www.w3.org/2000/svg" xmlns:xlink="http://www.w3.org/1999/xlink" x="0px" y="0px"
	 viewBox="0 0 1024 768" style="enable-background:new 0 0 1024 768;" xml:space="preserve">
<style type="text/css">
	.st0{fill:#FCF5F5;}
	.st1{stroke:#FFFFFF;stroke-miterlimit:10;}
	.st2{fill:#B84020;}
</style>
<g>
	<path class="st0" d="M548.46,410.4H379.02c-27.77,0-50.5-22.72-50.5-50.5v0c0-27.77,22.72-50.5,50.5-50.5h169.44
		c27.77,0,50.5,22.72,50.5,50.5v0C598.96,387.67,576.24,410.4,548.46,410.4z"/>
	<path d="M548.46,410.4l-81.99,0.22l-81.99,0.53l-5.12,0.03c-1.72-0.04-3.46-0.14-5.2-0.21c-1.72-0.18-3.44-0.48-5.16-0.72
		c-1.7-0.36-3.37-0.83-5.06-1.24c-6.67-1.99-12.9-5.42-18.22-9.9c-5.33-4.49-9.76-10.06-12.91-16.29
		c-3.16-6.23-5.06-13.12-5.43-20.11c-0.4-6.99,0.63-14.06,3.05-20.64c2.41-6.58,6.18-12.66,10.99-17.77
		c4.8-5.11,10.65-9.25,17.09-12.07c6.43-2.83,13.47-4.3,20.51-4.32l81.99,0.21l81.99,0.53l5.12,0.03c1.72,0.06,3.46,0.19,5.18,0.28
		c1.72,0.2,3.42,0.53,5.13,0.79c1.69,0.38,3.35,0.87,5.02,1.3c6.61,2.06,12.74,5.56,17.95,10.06c5.21,4.51,9.5,10.07,12.53,16.24
		c3.04,6.17,4.76,12.96,5.11,19.8c0.36,6.85-0.69,13.76-3.09,20.18c-2.39,6.42-6.11,12.33-10.82,17.29
		c-4.71,4.96-10.43,8.97-16.71,11.68C562.14,409.03,555.3,410.42,548.46,410.4z M548.46,410.4c6.84-0.01,13.66-1.44,19.91-4.19
		c6.25-2.74,11.93-6.76,16.59-11.73c4.67-4.96,8.34-10.86,10.67-17.25c2.35-6.39,3.35-13.26,2.96-20.04
		c-0.36-6.79-2.21-13.48-5.27-19.53c-3.07-6.05-7.37-11.46-12.54-15.82c-5.18-4.36-11.22-7.69-17.69-9.61
		c-1.64-0.4-3.27-0.85-4.91-1.2c-1.67-0.23-3.33-0.53-5.01-0.7c-1.69-0.07-3.36-0.16-5.05-0.21l-5.12,0.03l-81.99,0.53l-81.99,0.21
		c-6.63-0.02-13.27,1.33-19.36,3.97c-6.09,2.63-11.64,6.52-16.22,11.33c-4.58,4.81-8.19,10.55-10.51,16.78
		c-2.33,6.23-3.34,12.93-3,19.58c0.35,6.64,2.01,13.23,4.96,19.21c2.93,5.99,7.1,11.39,12.16,15.77c5.06,4.38,11.01,7.77,17.42,9.77
		c1.62,0.42,3.24,0.89,4.87,1.27c1.66,0.25,3.31,0.57,4.98,0.76c1.68,0.09,3.35,0.21,5.04,0.27l5.12,0.03l81.99,0.53L548.46,410.4z"
		/>
</g>
<path class="st0" d="M390.42,371.81c-10.47,6.69-7.29,25.27-10.48,40c0.01,0,0.02,0,0.02,0h169.23c27.65,0,50.27-22.72,50.27-50.5
	v-0.5C529.09,353.45,455.38,334.26,390.42,371.81z"/>
<g>
	<path d="M340.69,360.6c0-23.63,18.75-41.55,43.21-41.55s43.21,17.92,43.21,41.55c0,23.44-18.75,41.26-43.26,41.26
		C359.39,401.86,340.69,384.04,340.69,360.6z M405.98,360.46c0-12.16-9.57-21.53-22.07-21.53s-22.07,9.38-22.07,21.53
		c0,12.11,9.57,21.44,22.07,21.44S405.98,372.57,405.98,360.46z"/>
	<path d="M458.03,340.58v12.74h25v17.48h-25v29.15h-20.65v-79h51.03v19.63H458.03z"/>
	<path d="M517.94,340.58v12.74h25v17.48h-25v29.15h-20.65v-79h51.03v19.63H517.94z"/>
</g>
<circle class="st1" cx="383.96" cy="360.81" r="43"/>
<g>
	<path class="st2" d="M520.14,438.73v19.63h-51.03v-78.71h20.9v59.08H520.14z"/>
	<path class="st2" d="M529.02,379.65h20.9v78.71h-20.9V379.65z"/>
	<path class="st2" d="M631.61,379.55v79.59h-6.64l-40.48-39.21v38.48h-20.9v-79.54h6.74l40.33,39.06v-38.38H631.61z"/>
	<path class="st2" d="M665.94,399.08v10.99h25v17.43h-25v11.28h30.37v19.58h-51.03v-78.71h51.03v19.43H665.94z"/>
</g>
<circle class="st1" cx="383.29" cy="360.63" r="32.33"/>
</svg>
