<?xml version="1.0" encoding="utf-8"?>
<!-- Generator: Adobe Illustrator 24.0.1, SVG Export Plug-In . SVG Version: 6.00 Build 0)  -->
<svg version="1.1" xmlns="http://www.w3.org/2000/svg" xmlns:xlink="http://www.w3.org/1999/xlink" x="0px" y="0px"
	 viewBox="0 0 1080 1080" style="enable-background:new 0 0 1080 1080;" xml:space="preserve">
<style type="text/css">
	.st0{fill:#FFFFFF;stroke:#000000;stroke-miterlimit:10;}
	.st1{fill:#FFFFFF;}
	.st2{fill:none;}
	.st3{font-family:'LEMONMILK-Bold';}
	.st4{font-size:100px;}
	.st5{fill:#B84020;}
	.st6{fill:#FCF5F5;}
	.st7{stroke:#FFFFFF;stroke-miterlimit:10;}
</style>
<g id="try_3_1_">
	<path class="st0" d="M303,511H55.5C27.72,511,5,488.28,5,460.5v0C5,432.72,27.72,410,55.5,410H303c27.77,0,50.5,22.72,50.5,50.5v0
		C353.5,488.28,330.78,511,303,511z"/>
	<rect x="139" y="501" class="st1" width="345" height="70"/>
	<rect x="194" y="471" class="st1" width="345" height="70"/>
	<rect x="13.75" y="421.75" class="st2" width="400.75" height="172.75"/>
	<text transform="matrix(1 0 0 1 13.75 500.4609)" class="st3 st4">oFF</text>
	<rect x="138.75" y="480.25" class="st2" width="340.75" height="143.25"/>
	<text transform="matrix(1 0 0 1 138.75 558.9609)" class="st5 st3 st4">LINE</text>
	<circle cx="60" cy="461" r="23"/>
</g>
<g id="final">
	<g>
		<path class="st6" d="M234,704.59H64.56c-27.77,0-50.5-22.72-50.5-50.5v0c0-27.77,22.72-50.5,50.5-50.5H234
			c27.77,0,50.5,22.72,50.5,50.5v0C284.5,681.87,261.78,704.59,234,704.59z"/>
		<path d="M234,704.59l-81.99,0.22l-81.99,0.53l-5.12,0.03c-1.72-0.04-3.46-0.14-5.2-0.21c-1.72-0.18-3.44-0.48-5.16-0.72
			c-1.7-0.36-3.37-0.83-5.06-1.24c-6.67-1.99-12.9-5.42-18.22-9.9c-5.33-4.49-9.76-10.06-12.91-16.29
			c-3.16-6.23-5.06-13.12-5.43-20.11c-0.4-6.99,0.63-14.06,3.05-20.64c2.41-6.58,6.18-12.66,10.99-17.77
			c4.8-5.11,10.65-9.25,17.09-12.07c6.43-2.83,13.47-4.3,20.51-4.32l81.99,0.21l81.99,0.53l5.12,0.03c1.72,0.06,3.46,0.19,5.18,0.28
			c1.72,0.2,3.42,0.53,5.13,0.79c1.69,0.38,3.35,0.87,5.02,1.3c6.61,2.06,12.74,5.56,17.95,10.06c5.21,4.51,9.5,10.07,12.53,16.24
			c3.04,6.17,4.76,12.96,5.11,19.8c0.36,6.85-0.69,13.76-3.09,20.18c-2.39,6.42-6.11,12.33-10.82,17.29
			c-4.71,4.96-10.43,8.97-16.71,11.68C247.68,703.22,240.84,704.62,234,704.59z M234,704.59c6.84-0.01,13.66-1.44,19.91-4.19
			c6.25-2.74,11.93-6.76,16.59-11.73c4.67-4.96,8.34-10.86,10.67-17.25c2.35-6.39,3.35-13.26,2.96-20.04
			c-0.36-6.79-2.21-13.48-5.27-19.53c-3.07-6.05-7.37-11.46-12.54-15.82c-5.18-4.36-11.22-7.69-17.69-9.61
			c-1.64-0.4-3.27-0.85-4.91-1.2c-1.67-0.23-3.33-0.53-5.01-0.7c-1.69-0.07-3.36-0.16-5.05-0.21l-5.12,0.03l-81.99,0.53l-81.99,0.21
			c-6.63-0.02-13.27,1.33-19.36,3.97c-6.09,2.63-11.64,6.52-16.22,11.33c-4.58,4.81-8.19,10.55-10.51,16.78
			c-2.33,6.23-3.34,12.93-3,19.58c0.35,6.64,2.01,13.23,4.96,19.21c2.93,5.99,7.1,11.39,12.16,15.77
			c5.06,4.38,11.01,7.77,17.42,9.77c1.62,0.42,3.24,0.89,4.87,1.27c1.66,0.25,3.31,0.57,4.98,0.76c1.68,0.09,3.35,0.21,5.04,0.27
			l5.12,0.03l81.99,0.53L234,704.59z"/>
	</g>
	<path class="st6" d="M75.95,666c-10.47,6.69-7.29,25.27-10.48,40c0.01,0,0.02,0,0.02,0h169.23c27.65,0,50.27-22.72,50.27-50.5V655
		C214.63,647.65,140.91,628.45,75.95,666z"/>
	<g>
		<path d="M26.23,654.79c0-23.63,18.75-41.55,43.21-41.55s43.21,17.92,43.21,41.55c0,23.44-18.75,41.26-43.26,41.26
			C44.93,696.05,26.23,678.23,26.23,654.79z M91.51,654.65c0-12.16-9.57-21.53-22.07-21.53s-22.07,9.38-22.07,21.53
			c0,12.11,9.57,21.44,22.07,21.44S91.51,666.76,91.51,654.65z"/>
		<path d="M143.56,634.78v12.74h25V665h-25v29.15h-20.65v-79h51.03v19.63H143.56z"/>
		<path d="M203.47,634.78v12.74h25V665h-25v29.15h-20.65v-79h51.03v19.63H203.47z"/>
	</g>
	<circle class="st7" cx="69.5" cy="655" r="43"/>
	<g>
		<path class="st5" d="M205.67,732.92v19.63h-51.03v-78.71h20.9v59.08H205.67z"/>
		<path class="st5" d="M214.56,673.84h20.9v78.71h-20.9V673.84z"/>
		<path class="st5" d="M317.15,673.74v79.59h-6.64l-40.48-39.21v38.48h-20.9v-79.54h6.74l40.33,39.06v-38.38H317.15z"/>
		<path class="st5" d="M351.47,693.28v10.99h25v17.43h-25v11.28h30.37v19.58h-51.03v-78.71h51.03v19.43H351.47z"/>
	</g>
	<circle class="st7" cx="68.83" cy="654.83" r="32.33"/>
</g>
<g id="try_2">
	<rect x="8.75" y="191.75" class="st2" width="400.75" height="172.75"/>
	<text transform="matrix(1 0 0 1 8.75 270.4609)" class="st3 st4">OFF</text>
	<rect x="67.75" y="250.25" class="st2" width="340.75" height="143.25"/>
	<text transform="matrix(1 0 0 1 67.75 328.9609)" class="st3 st4">LINE</text>
</g>
<g id="try_1">
	<rect x="19.25" y="11.25" class="st2" width="400.75" height="172.75"/>
	<text transform="matrix(1 0 0 1 19.25 89.9609)" class="st3 st4">OFF</text>
	<rect x="112.25" y="69.75" class="st2" width="340.75" height="143.25"/>
	<text transform="matrix(1 0 0 1 112.25 148.4609)" class="st3 st4">LINE</text>
	<circle class="st1" cx="189.5" cy="79.5" r="13"/>
</g>
</svg>
